<?xml version="1.0" encoding="UTF-8"?>
<svg id="Layer_1" data-name="Layer 1" xmlns="http://www.w3.org/2000/svg" xmlns:xlink="http://www.w3.org/1999/xlink" viewBox="0 0 1540.67 188.21">
  <defs>
    <style>
      .cls-1 {
        fill: none;
      }

      .cls-2, .cls-3 {
        fill: #1A2930;
      }

      .cls-3 {
        font-family: DalaMoa-Thin, 'Dala Moa';
        font-size: 181.67px;
        font-weight: 200;
      }

      .cls-4 {
        letter-spacing: .08em;
      }

      .cls-5 {
        letter-spacing: .08em;
      }

      .cls-6 {
        letter-spacing: .07em;
      }

      .cls-7 {
        letter-spacing: .06em;
      }

      .cls-8 {
        clip-path: url(#clippath);
      }

      .cls-9 {
        letter-spacing: .05em;
      }
    </style>
    <clipPath id="clippath">
      <rect class="cls-1" y="33.65" width="164.5" height="114.6"/>
    </clipPath>
  </defs>
  <g class="cls-8">
    <path class="cls-2" d="M156.2,36.25v112.1h8.3V33.65l-8.3,2.6ZM72.8,55.95l1.3.9c5.2-6.5,11.4-13.2,19.9-22.4h-10.5c-3.4,7.2-6.9,14.4-10.7,21.5M6.1,34.45l76.1,113.9h10.1L15.7,34.45H6.1ZM0,148.35h11.2c5.1-9.9,9.2-17.2,13-24.2l-1.3-.9c-5.2,6.5-12.6,13-22.9,25.1"/>
  </g>
  <text class="cls-3" transform="translate(231 148.06)"><tspan class="cls-4" x="0" y="0">D</tspan><tspan class="cls-7" x="123.72" y="0">EV</tspan><tspan class="cls-4" x="330.1" y="0">E</tspan><tspan class="cls-9" x="431.47" y="0">L</tspan><tspan class="cls-4" x="522.49" y="0">OPME</tspan><tspan class="cls-6" x="1003.37" y="0">NT</tspan><tspan class="cls-5" x="1228.82" y="0">S</tspan></text>
</svg>