<?xml version="1.0" encoding="UTF-8"?>
<svg id="Layer_1" xmlns="http://www.w3.org/2000/svg" xmlns:xlink="http://www.w3.org/1999/xlink" version="1.1" viewBox="0 0 1540.67 188.21">
  <!-- Generator: Adobe Illustrator 29.7.1, SVG Export Plug-In . SVG Version: 2.1.1 Build 8)  -->
  <defs>
    <style>
      .st0 {
        fill: none;
      }

      .st1 {
        fill: #1a2930;
      }

      .st2 {
        isolation: isolate;
      }

      .st3 {
        clip-path: url(#clippath);
      }
    </style>
    <clipPath id="clippath">
      <rect class="st0" y="33.65" width="164.5" height="114.6"/>
    </clipPath>
  </defs>
  <g class="st3">
    <path class="st1" d="M156.2,36.25v112.1h8.3V33.65l-8.3,2.6ZM72.8,55.95l1.3.9c5.2-6.5,11.4-13.2,19.9-22.4h-10.5c-3.4,7.2-6.9,14.4-10.7,21.5M6.1,34.45l76.1,113.9h10.1L15.7,34.45H6.1ZM0,148.35h11.2c5.1-9.9,9.2-17.2,13-24.2l-1.3-.9C17.7,129.75,10.3,136.25,0,148.35"/>
  </g>
  <g class="st2">
    <g class="st2">
      <path class="st1" d="M253.16,33.61v114.45h-8.72V33.61h8.72ZM325.11,90.83c0-37.79-27.43-54.86-59.22-55.77v-1.45c30.34.54,68.49,14.9,68.49,57.23s-38.15,56.68-68.49,57.23v-1.27c31.79-1.45,59.22-18.17,59.22-55.95Z"/>
    </g>
    <g class="st2">
      <path class="st1" d="M376.88,33.61v114.45h-8.72V33.61h8.72ZM389.6,35.06v-1.45h45.42v7.45c-16.35-2.91-27.07-4.54-45.42-6ZM389.6,89.38c11.99-1.45,17.62-2,26.52-2.91v7.45l-26.52-3.09v-1.45ZM436.83,140.61v7.45h-47.23v-1.27c18.35-1.45,30.88-3.27,47.23-6.18Z"/>
      <path class="st1" d="M461,33.61l40.88,104.46-4,10.54h-1.82l-43.6-115h8.54ZM534.94,33.61h9.81c-4.54,8.54-8.17,15.99-13.08,25.43l-1.45-.54c1.45-6.72,3.27-17.44,4.72-24.89Z"/>
    </g>
    <g class="st2">
      <path class="st1" d="M583.26,33.61v114.45h-8.72V33.61h8.72ZM595.98,35.06v-1.45h45.42v7.45c-16.35-2.91-27.07-4.54-45.42-6ZM595.98,89.38c11.99-1.45,17.62-2,26.52-2.91v7.45l-26.52-3.09v-1.45ZM643.22,140.61v7.45h-47.23v-1.27c18.35-1.45,30.88-3.27,47.23-6.18Z"/>
    </g>
    <g class="st2">
      <path class="st1" d="M684.82,33.61v114.45h-8.72V33.61h8.72ZM741.13,140.07v7.99h-43.6v-1.27c18.89-2,25.25-3.27,43.6-6.72Z"/>
    </g>
    <g class="st2">
      <path class="st1" d="M759.49,90.83c0-29.61,21.62-56.5,50.69-58.5v1.27c-30.52,4.36-41.42,33.43-41.42,57.23s10.9,52.87,41.42,57.23v1.27c-29.07-2-50.69-28.89-50.69-58.5ZM861.77,90.83c0-23.8-10.9-52.87-41.42-57.23v-1.27c29.07,2,50.69,28.89,50.69,58.5s-21.62,56.5-50.69,58.5v-1.27c30.52-4.36,41.42-33.43,41.42-57.23Z"/>
      <path class="st1" d="M913.72,33.61v114.45h-8.72V33.61h8.72ZM959.87,63.77c0-20.89-13.08-26.71-34.15-28.7v-1.45c15.44.91,43.42,5.45,43.42,29.61,0,20.17-12.9,32.34-43.42,33.97v-1.45c25.25-2.18,34.15-13.26,34.15-31.97Z"/>
      <path class="st1" d="M1004.55,119.36h1.63c-.73,9.99-1.63,17.62-2.18,28.7h-9.81c5.45-12.17,7.45-18.89,10.36-28.7ZM1007.1,33.61l51.96,105.73-3.63,10.17h-.36l-56.86-115.91h8.9ZM1100.11,33.61l6,114.45h-8.17l-6-114.45h8.17Z"/>
      <path class="st1" d="M1155.16,33.61v114.45h-8.72V33.61h8.72ZM1167.87,35.06v-1.45h45.42v7.45c-16.35-2.91-27.07-4.54-45.42-6ZM1167.87,89.38c11.99-1.45,17.62-2,26.52-2.91v7.45l-26.52-3.09v-1.45ZM1215.11,140.61v7.45h-47.23v-1.27c18.35-1.45,30.88-3.27,47.23-6.18Z"/>
    </g>
    <g class="st2">
      <path class="st1" d="M1238.18,33.61h12.72l78.3,102.64v12.54h-1.27l-69.04-90.29c-9.63-12.9-12.35-16.17-20.71-24.89ZM1248.18,121.9h1.45c1.45,9.99,2.36,15.99,4.72,26.16h-10.9c2-10.72,3.27-16.17,4.72-26.16ZM1322.84,33.61h10.9c-2,9.27-3.27,15.99-4.72,26.16h-1.45c-1.45-9.63-2.73-16.9-4.72-26.16Z"/>
      <path class="st1" d="M1386.24,33.61v1.45c-11.63,2-19.8,3.45-31.25,6.72v-8.18h31.25ZM1403.68,33.61v114.45h-8.72V33.61h8.72ZM1412.41,35.06v-1.45h31.25v8.18c-11.45-3.27-19.62-4.72-31.25-6.72Z"/>
    </g>
    <g class="st2">
      <path class="st1" d="M1466.91,144.43v-8.9c7.08,6.36,16.17,11.26,23.98,12.54v1.27c-8.9-.54-18.35-2-23.98-4.91ZM1523.77,120.26c0-12.17-6.54-17.8-23.8-27.43l-4.91-2.72c-14.35-7.63-25.8-14.17-25.8-30.34,0-15.26,13.81-26.52,28.16-27.43v1.27c-12.17,1.45-20.71,10.17-20.71,20.53,0,14.71,4.36,17.99,23.44,28.7l4.54,2.54c15.81,8.72,26.52,14.72,26.52,32.16,0,20.89-19.98,30.88-30.16,31.79v-1.27c11.81-2.91,22.71-9.63,22.71-27.8ZM1507.6,33.61v-1.27c7.27.54,15.26,1.27,20.35,2.73v8.17c-7.08-5.27-15.8-9.08-20.35-9.63Z"/>
    </g>
  </g>
</svg>